<?xml version="1.0" encoding="utf-8"?><svg viewBox="0 0 800 800" xmlns="http://www.w3.org/2000/svg" xmlns:xlink="http://www.w3.org/1999/xlink"><style>:root>svg{display:none}:root>svg:target{display:block}</style><svg viewBox="0 0 502.664 502.664" xml:space="preserve" id="icon" xmlns="http://www.w3.org/2000/svg"><path d="M153.821 358.226 0 274.337v-46.463l153.821-83.414v54.574L46.636 250.523l107.185 53.431v54.272zm26.273 29.358L282.103 115.08h32.227L212.084 387.584h-31.99zm168.749-29.358v-54.272l107.164-52.999-107.164-52.59v-53.927l153.821 83.522v46.183l-153.821 84.083z"/></svg><svg viewBox="0 0 26 22" id="tg" xmlns="http://www.w3.org/2000/svg"><path fill-rule="evenodd" clip-rule="evenodd" d="M1.78 9.488C8.758 6.393 13.403 4.337 15.736 3.34 22.375.51 23.77.02 24.668 0c.199 0 .638.04.937.285.239.204.299.468.339.672.04.204.08.631.04.957-.36 3.869-1.914 13.255-2.712 17.572-.339 1.832-.997 2.443-1.635 2.504-1.395.123-2.452-.936-3.788-1.832-2.113-1.405-3.29-2.28-5.343-3.665-2.372-1.588-.837-2.464.519-3.89.358-.366 6.479-6.067 6.599-6.576.02-.061.02-.305-.12-.428-.14-.122-.339-.081-.498-.04-.22.04-3.57 2.32-10.088 6.82-.957.673-1.815.998-2.592.978-.857-.02-2.492-.489-3.728-.896-1.496-.489-2.692-.753-2.592-1.608.06-.448.658-.896 1.774-1.365Z"/></svg><svg viewBox="0 0 31 19" id="vk" xmlns="http://www.w3.org/2000/svg"><path d="M16.884 19C6.293 19 .252 11.868 0 0h5.305c.175 8.71 4.086 12.4 7.184 13.161V0h4.996v7.512c3.06-.323 6.273-3.746 7.357-7.512h4.996c-.833 4.64-4.318 8.064-6.796 9.471C25.52 10.613 29.49 13.6 31 19h-5.5c-1.18-3.614-4.123-6.41-8.015-6.79V19h-.6Z"/></svg><svg viewBox="0 0 48 48" id="whatsapp" xmlns="http://www.w3.org/2000/svg"><path d="M23.993 0C10.763 0 0 10.765 0 24a23.824 23.824 0 0 0 4.57 14.067l-2.99 8.917 9.224-2.948A23.81 23.81 0 0 0 24.007 48C37.237 48 48 37.234 48 24S37.238 0 24.007 0h-.014Zm-6.7 12.19c-.466-1.114-.818-1.156-1.523-1.185a13.55 13.55 0 0 0-.804-.027c-.918 0-1.877.268-2.455.86-.705.72-2.454 2.398-2.454 5.841s2.51 6.773 2.849 7.239c.353.465 4.895 7.632 11.947 10.553 5.515 2.286 7.152 2.074 8.407 1.806 1.834-.395 4.133-1.75 4.711-3.386.579-1.637.579-3.034.41-3.33-.17-.296-.636-.465-1.34-.818-.706-.353-4.134-2.046-4.783-2.272-.634-.24-1.24-.155-1.72.522-.677.946-1.34 1.905-1.876 2.483-.423.452-1.115.509-1.693.268-.776-.324-2.948-1.086-5.628-3.47-2.074-1.849-3.484-4.148-3.893-4.84-.41-.705-.042-1.114.282-1.495.353-.438.691-.748 1.044-1.157.352-.41.55-.621.776-1.1.24-.466.07-.946-.1-1.3-.168-.352-1.579-3.795-2.157-5.191Z" fill-rule="evenodd"/></svg></svg>